HIERARCHY
ROOT Pelvis
{
	OFFSET 0.000000 0.000000 0.000000
	CHANNELS 6 Xposition Yposition Zposition Xrotation Yrotation Zrotation
	JOINT LeftUpLeg_virtual
	{
		OFFSET 0.000000 0.000000 0.000000
		CHANNELS 3 Xrotation Yrotation Zrotation
		JOINT LeftUpLeg
		{
			OFFSET 18.735201 -5.666702 -4.541200
			CHANNELS 3 Xrotation Yrotation Zrotation
			JOINT LeftLeg
			{
				OFFSET -0.021200 -31.938179 0.493100
				CHANNELS 3 Xrotation Yrotation Zrotation
				JOINT LeftFoot
				{
					OFFSET 0.021200 -31.938179 -4.336299
					CHANNELS 3 Xrotation Yrotation Zrotation
					JOINT LeftToeBase
					{
						OFFSET 0.943001 -26.722000 15.023500
						CHANNELS 3 Xrotation Yrotation Zrotation
						End Site
						{
							OFFSET 0 0 0
						}
					}
				}
			}
		}
	}
	JOINT RightUpLeg_virtual
	{
		OFFSET 0.000000 0.000000 0.000000
		CHANNELS 3 Xrotation Yrotation Zrotation
		JOINT RightUpLeg
		{
			OFFSET -18.735201 -5.666702 -4.541200
			CHANNELS 3 Xrotation Yrotation Zrotation
			JOINT RightLeg
			{
				OFFSET 0.018946 -31.938133 0.493100
				CHANNELS 3 Xrotation Yrotation Zrotation
				JOINT RightFoot
				{
					OFFSET -0.018946 -31.938126 -4.336299
					CHANNELS 3 Xrotation Yrotation Zrotation
					JOINT RightToeBase
					{
						OFFSET -0.943001 -26.722004 15.023500
						CHANNELS 3 Xrotation Yrotation Zrotation
						End Site
						{
							OFFSET 0 0 0
						}
					}
				}
			}
		}
	}
	JOINT Hips_virtual
	{
		OFFSET 0.000000 0.000000 0.000000
		CHANNELS 3 Xrotation Yrotation Zrotation
		JOINT Hips
		{
			OFFSET -0.000000 -0.000000 -0.000000
			CHANNELS 3 Xrotation Yrotation Zrotation
			JOINT Spine
			{
				OFFSET 0.000000 10.199997 -0.299500
				CHANNELS 3 Xrotation Yrotation Zrotation
				JOINT Spine1
				{
					OFFSET 0.000000 11.900002 -1.516600
					CHANNELS 3 Xrotation Yrotation Zrotation
					JOINT Spine2
					{
						OFFSET 0.000000 13.600006 -2.842500
						CHANNELS 3 Xrotation Yrotation Zrotation
						JOINT Neck_virtual
						{
							OFFSET 0.000000 0.000000 0.000000
							CHANNELS 3 Xrotation Yrotation Zrotation
							JOINT Neck
							{
								OFFSET 0.000000 9.624100 -2.890100
								CHANNELS 3 Xrotation Yrotation Zrotation
								JOINT Head
								{
									OFFSET 0.000000 14.068802 -1.351900
									CHANNELS 3 Xrotation Yrotation Zrotation
									End Site
									{
										OFFSET 0 0 0
									}
								}
							}
						}
						JOINT LeftShoulder_virtual
						{
							OFFSET 0.000000 0.000000 0.000000
							CHANNELS 3 Xrotation Yrotation Zrotation
							JOINT LeftShoulder
							{
								OFFSET 15.263000 10.923401 -0.547700
								CHANNELS 3 Xrotation Yrotation Zrotation
								JOINT LeftArm
								{
									OFFSET 25.438599 -2.830597 -13.032500
									CHANNELS 3 Xrotation Yrotation Zrotation
									JOINT LeftForeArm
									{
										OFFSET 29.960503 0.000000 0.000000
										CHANNELS 3 Xrotation Yrotation Zrotation
										JOINT LeftHand
										{
											OFFSET 27.849251 0.000000 0.000000
											CHANNELS 3 Xrotation Yrotation Zrotation
											End Site
											{
												OFFSET 0 0 0
											}
										}
									}
								}
							}
						}
						JOINT RightShoulder_virtual
						{
							OFFSET 0.000000 0.000000 0.000000
							CHANNELS 3 Xrotation Yrotation Zrotation
							JOINT RightShoulder
							{
								OFFSET -15.263000 10.923401 -0.547700
								CHANNELS 3 Xrotation Yrotation Zrotation
								JOINT RightArm
								{
									OFFSET -25.438599 -2.830597 -13.032500
									CHANNELS 3 Xrotation Yrotation Zrotation
									JOINT RightForeArm
									{
										OFFSET -29.960503 0.000000 0.000000
										CHANNELS 3 Xrotation Yrotation Zrotation
										JOINT RightHand
										{
											OFFSET -27.849251 0.000000 0.000000
											CHANNELS 3 Xrotation Yrotation Zrotation
											End Site
											{
												OFFSET 0 0 0
											}
										}
									}
								}
							}
						}
					}
				}
			}
		}
	}
}
MOTION
Frames: 4
Frame Time: 0.03333333
-4.284484 77.730026 5.506138 0.000000 0.000000 0.000000 -7.386928 -19.492786 4.372377 -55.144096 0.912458 23.046733 48.706837 -8.730570 -2.940413 -3.576657 -7.616763 -16.345169 0.000000 0.000000 0.000000 9.578262 -35.839710 -2.445098 -21.056988 -14.549073 -23.547364 45.453119 6.619170 1.357071 -13.820224 0.750193 17.971749 0.000000 0.000000 0.000000 0.992405 -20.763043 1.396556 11.934564 -37.454459 11.988791 4.062092 5.650108 -3.394832 3.224823 3.810304 -3.270394 0.000000 0.000000 0.000000 -2.650150 2.198221 -1.759289 -3.578282 1.108630 0.341791 0.000000 0.000000 0.000000 -3.208110 3.123936 -2.331096 -4.730301 0.232948 -3.329730 -21.299713 18.396706 -53.524935 -8.190903 -20.991321 -8.247511 0.000000 0.000000 0.000000 -4.139281 4.199182 -2.130636 -5.923767 17.224965 -0.288735 -25.267977 -16.603123 43.225873 -16.431217 38.721852 16.917591 0.000000 0.000000 0.000000 
-4.421998 77.691109 5.629988 0.000000 0.000000 0.000000 -7.346901 -19.407697 4.340757 -55.136818 0.962548 23.043211 48.613359 -8.725615 -3.039440 -3.612478 -7.559798 -16.505051 0.000000 0.000000 0.000000 9.754867 -35.838535 -2.317350 -20.856649 -14.605451 -23.447908 45.459209 6.626057 1.385195 -13.943785 0.708379 17.982954 0.000000 0.000000 0.000000 1.059485 -20.956291 1.535268 12.121047 -36.359583 12.118401 4.041121 5.142345 -3.294276 3.347325 3.527929 -3.276741 0.000000 0.000000 0.000000 -2.776350 1.833024 -1.661501 -3.666125 0.945689 0.396408 0.000000 0.000000 0.000000 -2.985512 2.880379 -2.301165 -4.591951 -0.323844 -2.984058 -21.223281 18.359531 -53.237643 -8.101791 -20.829683 -8.160011 0.000000 0.000000 0.000000 -4.012867 3.963348 -2.084956 -5.799534 16.411013 -0.185807 -25.192360 -16.520131 43.479885 -16.821345 39.625841 17.468084 0.000000 0.000000 0.000000 
-4.686895 77.627281 5.857071 0.000000 0.000000 0.000000 -7.244528 -19.278593 4.296563 -55.095052 1.049106 23.045999 48.436447 -8.720933 -3.229494 -3.690239 -7.452407 -16.814304 0.000000 0.000000 0.000000 10.091645 -35.825773 -2.066360 -20.477179 -14.710291 -23.248827 45.478036 6.634591 1.433209 -14.168561 0.630559 17.994311 0.000000 0.000000 0.000000 1.230321 -21.345733 1.820556 12.517276 -34.260905 12.375043 4.057805 4.152821 -3.096740 3.610222 2.972183 -3.282565 0.000000 0.000000 0.000000 -2.970824 1.141530 -1.489704 -3.807241 0.635903 0.494671 0.000000 0.000000 0.000000 -2.545986 2.397229 -2.251546 -4.306583 -1.449259 -2.362781 -21.028546 18.263569 -52.702897 -7.920205 -20.563326 -8.001772 0.000000 0.000000 0.000000 -3.743866 3.500264 -1.986218 -5.540316 14.813451 0.038571 -25.089602 -16.331356 43.917775 -17.589014 41.319253 18.531232 0.000000 0.000000 0.000000 
-5.063560 77.560081 6.154941 0.000000 0.000000 0.000000 -7.049861 -19.161274 4.270974 -54.980318 1.150918 23.071554 48.194993 -8.725455 -3.496605 -3.818156 -7.306264 -17.254231 0.000000 0.000000 0.000000 10.560123 -35.783211 -1.703831 -19.953351 -14.849586 -22.953624 45.517364 6.637429 1.486451 -14.459454 0.527970 17.987675 0.000000 0.000000 0.000000 1.558101 -21.924747 2.260798 13.148260 -31.344203 12.749935 4.211015 2.732299 -2.809720 4.041218 2.163288 -3.276796 0.000000 0.000000 0.000000 -3.137136 0.193679 -1.284967 -3.944585 0.209292 0.617122 0.000000 0.000000 0.000000 -1.899999 1.686273 -2.197657 -3.862733 -3.146641 -1.582285 -20.659966 18.081000 -51.980291 -7.642355 -20.274086 -7.794797 0.000000 0.000000 0.000000 -3.307108 2.829512 -1.823716 -5.126305 12.501625 0.411217 -25.031018 -16.003260 44.417837 -18.709328 43.606120 20.033821 0.000000 0.000000 0.000000 
